<mxfile host="app.diagrams.net" modified="2024-06-06T17:45:15.183Z" agent="Mozilla/5.0 (Windows NT 10.0; Win64; x64) AppleWebKit/537.36 (KHTML, like Gecko) Chrome/125.0.0.0 Safari/537.36" version="24.5.1" etag="eFERpGTyuP9OKw8CPnC2" type="github">
  <diagram name="PÃ¡gina-1" id="gc2Tck7dFUPlDZ1SyNt8">
    <mxGraphModel>
      <root>
        <mxCell id="0" />
        <mxCell id="1" parent="0" />
      </root>
    </mxGraphModel>
  </diagram>
</mxfile>
